<?xml version="1.0" encoding="UTF-8"?>
<!DOCTYPE svg PUBLIC "-//W3C//DTD SVG 1.1//EN" "http://www.w3.org/Graphics/SVG/1.1/DTD/svg11.dtd">
<svg xmlns="http://www.w3.org/2000/svg" version="1.1" width="32px" height="32px" style="shape-rendering:geometricPrecision; text-rendering:geometricPrecision; image-rendering:optimizeQuality; fill-rule:evenodd; clip-rule:evenodd" xmlns:xlink="http://www.w3.org/1999/xlink">
<g><path style="opacity:0.997" fill="#e1f7f9" d="M 1.5,-0.5 C 10.8333,-0.5 20.1667,-0.5 29.5,-0.5C 29.8333,0.5 30.5,1.16667 31.5,1.5C 31.5,10.8333 31.5,20.1667 31.5,29.5C 30.5,29.8333 29.8333,30.5 29.5,31.5C 20.1667,31.5 10.8333,31.5 1.5,31.5C 1.16667,30.5 0.5,29.8333 -0.5,29.5C -0.5,20.1667 -0.5,10.8333 -0.5,1.5C 0.5,1.16667 1.16667,0.5 1.5,-0.5 Z"/></g>
<g><path style="opacity:1" fill="#42cbdd" d="M 12.5,7.5 C 20.6428,6.95366 24.1428,10.6203 23,18.5C 22,20.8333 20.3333,22.5 18,23.5C 17.8333,22.6667 17.6667,21.8333 17.5,21C 18.5354,19.1623 19.5354,17.3289 20.5,15.5C 20.3201,14.4461 19.9867,13.4461 19.5,12.5C 16.8333,11.1667 14.1667,11.1667 11.5,12.5C 9.8386,15.5233 10.5053,17.8567 13.5,19.5C 12.9747,20.1924 12.3081,20.6924 11.5,21C 12.9561,21.4226 13.4561,22.2559 13,23.5C 8.35617,21.211 6.6895,17.5443 8,12.5C 9.19325,10.5029 10.6932,8.83621 12.5,7.5 Z"/></g>
</svg>
